<svg width="46" height="46" viewBox="0 0 46 46" fill="none" xmlns="http://www.w3.org/2000/svg">
<path d="M45.1086 22.7833C45.1086 35.1784 35.0097 45.2725 22.6086 45.2725C10.2076 45.2725 0.108643 35.1784 0.108643 22.7833C0.108643 10.3665 10.2076 0.272461 22.6086 0.272461C35.0097 0.272461 45.1086 10.3665 45.1086 22.7833Z" fill="#E16723"/>
<path d="M30.8586 22.7834C30.8586 23.352 30.6797 23.9229 30.3217 24.38C30.2546 24.4697 29.9414 24.8393 29.6953 25.0799L29.5611 25.2111C27.6818 27.2036 23.006 30.1999 20.6346 31.1601C20.6346 31.1819 19.2251 31.7528 18.554 31.7725H18.4645C17.4353 31.7725 16.4733 31.206 15.9812 30.2874C15.7127 29.7822 15.4666 28.3168 15.4442 28.2971C15.2429 26.9827 15.1086 24.9705 15.1086 22.7615C15.1086 20.4454 15.2429 18.3435 15.489 17.0531C15.489 17.0313 15.7351 15.8502 15.8917 15.4565C16.1378 14.8901 16.5852 14.4067 17.1445 14.1005C17.592 13.884 18.0618 13.7725 18.554 13.7725C19.0685 13.7965 20.0305 14.1224 20.4108 14.2755C22.9165 15.2378 27.7042 18.3873 29.5387 20.312C29.8519 20.6181 30.1875 20.9921 30.277 21.0774C30.6573 21.5586 30.8586 22.1491 30.8586 22.7834Z" fill="white"/>
</svg>
